<svg xmlns="http://www.w3.org/2000/svg" width="512" height="512" viewBox="0 0 512 512">
  <g id="electric-meter" transform="translate(-0.466)">
    <g id="Grupo_23" data-name="Grupo 23" transform="translate(0.466)">
      <circle id="Elipse_7" data-name="Elipse 7" cx="256" cy="256" r="256" fill="#e3e0e4"/>
    </g>
    <g id="Grupo_24" data-name="Grupo 24" transform="translate(35.982 35.882)">
      <circle id="Elipse_8" data-name="Elipse 8" cx="217.67" cy="217.67" r="217.67" fill="#f6f6f6"/>
    </g>
    <g id="Grupo_25" data-name="Grupo 25" transform="translate(144.816 133.833)">
      <path id="Caminho_18" data-name="Caminho 18" d="M359.5,250.885H141.833V141.266a10.1,10.1,0,0,1,10.1-10.1H349.4a10.1,10.1,0,0,1,10.1,10.1V250.885Z" transform="translate(-141.833 -131.167)" fill="#3ba9fd"/>
    </g>
    <g id="Grupo_26" data-name="Grupo 26" transform="translate(245.999 214.856)">
      <circle id="Elipse_9" data-name="Elipse 9" cx="7.652" cy="7.652" r="7.652" fill="#0e8bce"/>
    </g>
    <g id="Grupo_27" data-name="Grupo 27" transform="translate(112.166 253.551)">
      <path id="Caminho_19" data-name="Caminho 19" d="M109.835,281.151h0v42.612a22.07,22.07,0,0,0,3.359,11.791,163.291,163.291,0,0,0,276.252,0,22.072,22.072,0,0,0,3.359-11.791V281.151a32.651,32.651,0,0,1-32.651-32.65H142.485A32.65,32.65,0,0,1,109.835,281.151Z" transform="translate(-109.833 -248.5)" fill="#fdd82e"/>
    </g>
    <g id="Grupo_28" data-name="Grupo 28" transform="translate(238.347)">
      <path id="Caminho_20" data-name="Caminho 20" d="M248.805,0c-5.141,0-10.24.171-15.305.473C366.4,8.388,471.747,118.659,471.747,253.551S366.4,498.715,233.5,506.63c5.065.3,10.164.473,15.305.473,140.032,0,253.551-113.519,253.551-253.551S388.838,0,248.805,0Z" transform="translate(-233.5)" fill="#c8c3ca"/>
    </g>
    <g id="Grupo_29" data-name="Grupo 29" transform="translate(238.347 35.882)">
      <path id="Caminho_21" data-name="Caminho 21" d="M248.805,35.167c-5.147,0-10.249.192-15.305.543,113.073,7.856,202.365,102.057,202.365,217.127S346.573,462.108,233.5,469.964c5.057.351,10.158.544,15.305.544,120.216,0,217.669-97.455,217.669-217.67S369.021,35.167,248.805,35.167Z" transform="translate(-233.5 -35.167)" fill="#eaeaea"/>
    </g>
    <g id="Grupo_30" data-name="Grupo 30" transform="translate(321.777 133.833)">
      <path id="Caminho_22" data-name="Caminho 22" d="M345.878,131.167h-30.61a10.1,10.1,0,0,1,10.1,10.1V250.885h30.61V141.266A10.1,10.1,0,0,0,345.878,131.167Z" transform="translate(-315.268 -131.167)" fill="#0e8bce"/>
    </g>
    <g id="Grupo_31" data-name="Grupo 31" transform="translate(238.347 253.551)">
      <path id="Caminho_23" data-name="Caminho 23" d="M357.641,248.5h-30.61a32.66,32.66,0,0,0,20.38,30.266,19.533,19.533,0,0,1,12.271,18.07v26.937a21.97,21.97,0,0,1-3.332,11.737A163.2,163.2,0,0,1,233.5,411.032c5.039.468,10.143.719,15.305.719a163.136,163.136,0,0,0,138.127-76.2,22.071,22.071,0,0,0,3.359-11.79V281.151A32.651,32.651,0,0,1,357.641,248.5Z" transform="translate(-233.5 -248.5)" fill="#ff9800"/>
    </g>
    <g id="Grupo_32" data-name="Grupo 32" transform="translate(190.836 157.361)">
      <path id="Caminho_24" data-name="Caminho 24" d="M210.569,227.048a23.66,23.66,0,0,1-23.633-23.633V177.859a23.633,23.633,0,0,1,47.266,0v25.556A23.659,23.659,0,0,1,210.569,227.048Zm0-57.517a8.337,8.337,0,0,0-8.328,8.328v25.556a8.328,8.328,0,0,0,16.656,0V177.859A8.337,8.337,0,0,0,210.569,169.531Z" transform="translate(-186.936 -154.226)" fill="#0e8bce"/>
    </g>
    <g id="Grupo_33" data-name="Grupo 33" transform="translate(269.201 157.361)">
      <path id="Caminho_25" data-name="Caminho 25" d="M287.373,227.048a23.66,23.66,0,0,1-23.633-23.633V177.859a23.632,23.632,0,1,1,47.265,0v25.556A23.659,23.659,0,0,1,287.373,227.048Zm0-57.517a8.337,8.337,0,0,0-8.328,8.328v25.556a8.327,8.327,0,1,0,16.655,0V177.859A8.336,8.336,0,0,0,287.373,169.531Z" transform="translate(-263.74 -154.226)" fill="#0e8bce"/>
    </g>
    <g id="Grupo_34" data-name="Grupo 34" transform="translate(180.698 281.61)">
      <path id="Caminho_26" data-name="Caminho 26" d="M184.418,323.953a7.866,7.866,0,0,1-7.418-7.97v-32.01a7.866,7.866,0,0,1,7.418-7.97,7.653,7.653,0,0,1,7.887,7.649V316.3A7.652,7.652,0,0,1,184.418,323.953Z" transform="translate(-177 -276)" fill="#ffed8f"/>
    </g>
    <g id="Grupo_35" data-name="Grupo 35" transform="translate(213.349 281.61)">
      <path id="Caminho_27" data-name="Caminho 27" d="M216.418,323.953a7.866,7.866,0,0,1-7.418-7.97v-32.01a7.866,7.866,0,0,1,7.418-7.97,7.653,7.653,0,0,1,7.887,7.649V316.3A7.652,7.652,0,0,1,216.418,323.953Z" transform="translate(-209 -276)" fill="#ffed8f"/>
    </g>
    <g id="Grupo_36" data-name="Grupo 36" transform="translate(245.999 281.61)">
      <path id="Caminho_28" data-name="Caminho 28" d="M248.417,323.953a7.866,7.866,0,0,1-7.417-7.97v-32.01a7.866,7.866,0,0,1,7.417-7.97,7.653,7.653,0,0,1,7.887,7.649V316.3A7.652,7.652,0,0,1,248.417,323.953Z" transform="translate(-241 -276)" fill="#ffed8f"/>
    </g>
    <g id="Grupo_37" data-name="Grupo 37" transform="translate(278.65 281.61)">
      <path id="Caminho_29" data-name="Caminho 29" d="M280.418,323.953a7.865,7.865,0,0,1-7.417-7.97v-32.01a7.866,7.866,0,0,1,7.417-7.97,7.653,7.653,0,0,1,7.887,7.649V316.3A7.653,7.653,0,0,1,280.418,323.953Z" transform="translate(-273 -276)" fill="#ffed8f"/>
    </g>
    <g id="Grupo_38" data-name="Grupo 38" transform="translate(311.3 281.61)">
      <path id="Caminho_30" data-name="Caminho 30" d="M312.418,323.953a7.865,7.865,0,0,1-7.418-7.97v-32.01a7.866,7.866,0,0,1,7.418-7.97,7.653,7.653,0,0,1,7.887,7.649V316.3A7.653,7.653,0,0,1,312.418,323.953Z" transform="translate(-305 -276)" fill="#ffed8f"/>
    </g>
    <g id="Grupo_39" data-name="Grupo 39" transform="translate(202.465 354.734)">
      <path id="Caminho_31" data-name="Caminho 31" d="M293.054,362.972H206.306a7.864,7.864,0,0,1-7.969-7.417,7.651,7.651,0,0,1,7.648-7.888h86.747a7.864,7.864,0,0,1,7.97,7.417A7.652,7.652,0,0,1,293.054,362.972Z" transform="translate(-198.334 -347.667)" fill="#ffed8f"/>
    </g>
    <g id="Grupo_40" data-name="Grupo 40" transform="translate(213.349 80.474)">
      <path id="Caminho_32" data-name="Caminho 32" d="M281.953,94.176h-65.3a7.652,7.652,0,0,1,0-15.3h65.3a7.652,7.652,0,1,1,0,15.3Z" transform="translate(-209 -78.871)" fill="#c8c3ca"/>
    </g>
    <g id="Grupo_41" data-name="Grupo 41" transform="translate(51.293 154.743)">
      <path id="Caminho_33" data-name="Caminho 33" d="M432.542,250.45a208.15,208.15,0,0,1,15.391-79.05q-3.757-9.636-8.391-18.809a225.819,225.819,0,0,0,0,195.718q4.622-9.166,8.391-18.81A208.14,208.14,0,0,1,432.542,250.45Z" transform="translate(-42.712 -151.641)" fill="#c8c3ca"/>
      <path id="Caminho_34" data-name="Caminho 34" d="M66.081,250.469a208.124,208.124,0,0,1-15.907,80.339q3.76,9.463,8.361,18.475a7.858,7.858,0,0,0,.529-.917,223.223,223.223,0,0,0,22.323-97.9,223.22,223.22,0,0,0-22.324-97.9,7.7,7.7,0,0,0-.531-.912q-4.593,9-8.359,18.47A208.1,208.1,0,0,1,66.081,250.469Z" transform="translate(-50.173 -151.66)" fill="#c8c3ca"/>
    </g>
    <path id="Caminho_35" data-name="Caminho 35" d="M66.081,250.469a208.124,208.124,0,0,1-15.907,80.339q3.76,9.463,8.361,18.475a7.858,7.858,0,0,0,.529-.917,223.223,223.223,0,0,0,22.323-97.9,223.22,223.22,0,0,0-22.324-97.9,7.7,7.7,0,0,0-.531-.912q-4.593,9-8.359,18.47A208.1,208.1,0,0,1,66.081,250.469Z" transform="translate(1.12 3.083)" fill="#c8c3ca"/>
    <path id="Caminho_36" data-name="Caminho 36" d="M432.4,250.45a208.16,208.16,0,0,1,15.391-79.05s0,0,0,0q-.911-2.335-1.876-4.645c-.024-.056-.046-.114-.069-.171q-.979-2.339-2.009-4.647c-.011-.023-.021-.046-.031-.07q-2.094-4.691-4.4-9.264a.033.033,0,0,0,0-.009,223.734,223.734,0,0,0-15,40.667,219.2,219.2,0,0,1,0,114.383,223.805,223.805,0,0,0,15,40.667l0-.007q2.306-4.575,4.4-9.27l.025-.056q1.033-2.316,2.013-4.659l.067-.163q.965-2.312,1.879-4.652h0A208.179,208.179,0,0,1,432.4,250.45Z" transform="translate(8.727 3.102)" fill="#b1abb4"/>
  </g>
</svg>
