<svg id="solar-energy" xmlns="http://www.w3.org/2000/svg" width="481.16" height="512" viewBox="0 0 481.16 512">
  <g id="Grupo_18" data-name="Grupo 18" transform="translate(33.782 380.437)">
    <path id="Caminho_1" data-name="Caminho 1" d="M33.107,86.994H57.835v47.692H33.107Z" transform="translate(57.046 -86.994)" fill="#ff9800"/>
    <path id="Caminho_2" data-name="Caminho 2" d="M12.309,86.994H37.037v47.692H12.309Z" transform="translate(-12.309 -86.994)" fill="#ff9800"/>
  </g>
  <path id="Caminho_3" data-name="Caminho 3" d="M130.863,165.691h-83.8a7.689,7.689,0,0,1,0-15.349h76.586V104.294a7.454,7.454,0,0,1,7.212-7.674H270.3a7.689,7.689,0,0,1,0,15.349H138.075v46.047A7.454,7.454,0,0,1,130.863,165.691Z" transform="translate(113.323 328.219)" fill="#fdd82e"/>
  <path id="Caminho_4" data-name="Caminho 4" d="M37.555,106.959H92.318v26.313H37.555Z" transform="translate(105.66 365.572)" fill="#ff9800"/>
  <path id="Caminho_5" data-name="Caminho 5" d="M0,0H325.619V37.092H0Z" transform="translate(397.152 186.381) rotate(90)" fill="#eaeaf0"/>
  <path id="Caminho_6" data-name="Caminho 6" d="M80,104.107H182.787v35.084H80Z" transform="translate(247.212 355.268)" fill="#0e8bce"/>
  <path id="Caminho_7" data-name="Caminho 7" d="M86.153,47.629h49.455V170.8H86.153Z" transform="translate(267.725 151.233)" fill="#0e8bce"/>
  <path id="Caminho_8" data-name="Caminho 8" d="M415.512,23,390.826,66.853l-8,14.253-20.359,36.224-8.036,14.209-20.359,36.18-8,14.253-20.359,36.224-8,14.209-24.068,42.758H25.556l24.687-43.9,8-14.209,20.4-36.18,8-14.253L106.993,130.4l8.037-14.209,20.359-36.18,8-14.253L167.452,23Z" transform="translate(65.648 62.254)" fill="#3ba9fd"/>
  <path id="Caminho_9" data-name="Caminho 9" d="M363.839,81.106l8-14.253a6.7,6.7,0,0,0-3.668-1.1h-71.3l21.843-38.811A7.483,7.483,0,0,0,319.7,23H304.08L280.053,65.757h-65.24l21.843-38.811A7.934,7.934,0,0,0,237.687,23h-15.62L198.04,65.757H124.392l-8,14.253a6.694,6.694,0,0,0,3.668,1.1h69.32l-19.741,35.084H96.038L88,130.4a6.444,6.444,0,0,0,3.709,1.14h69.32L141.29,166.622H67.642l-8,14.253a6.694,6.694,0,0,0,3.668,1.1h69.32l-19.741,35.084H39.246l-8,14.209a6.444,6.444,0,0,0,3.709,1.14h69.32L82.438,271.214a7.934,7.934,0,0,0-1.03,3.947h15.62L121.054,232.4h65.24l-21.843,38.811a7.934,7.934,0,0,0-1.03,3.947h15.62L203.109,232.4h75.626l8-14.209a6.444,6.444,0,0,0-3.709-1.14h-71.3l19.741-35.084h75.626l8-14.253a6.694,6.694,0,0,0-3.668-1.1h-71.3l19.741-35.084h75.584l8.036-14.209a6.445,6.445,0,0,0-3.709-1.14h-71.3l19.741-35.084ZM194.949,217.054h-65.24l19.741-35.084h65.2ZM223.3,166.622h-65.24L177.8,131.538h65.24Zm28.354-50.433h-65.2L206.2,81.106h65.2Z" transform="translate(84.639 62.254)" fill="#eaeaf0"/>
  <g id="Grupo_19" data-name="Grupo 19" transform="translate(0 0)">
    <path id="Caminho_10" data-name="Caminho 10" d="M27.416,164.585A7.454,7.454,0,0,1,20.2,156.91V12.191a7.454,7.454,0,0,1,7.212-7.675,7.454,7.454,0,0,1,7.212,7.675V156.91a7.454,7.454,0,0,1-7.212,7.675Z" transform="translate(47.798 -4.516)" fill="#ff9800"/>
    <path id="Caminho_11" data-name="Caminho 11" d="M16.308,126.776a7.225,7.225,0,0,1-6.647-4.746,8.037,8.037,0,0,1,1.565-8.353l96.15-102.312a6.908,6.908,0,0,1,10.2,0,8.027,8.027,0,0,1,0,10.853L21.406,124.509A6.982,6.982,0,0,1,16.308,126.776Z" transform="translate(10.822 12.098)" fill="#ff9800"/>
    <path id="Caminho_12" data-name="Caminho 12" d="M147.731,35.552h-136a7.454,7.454,0,0,1-7.212-7.675A7.454,7.454,0,0,1,11.728,20.2h136a7.454,7.454,0,0,1,7.212,7.675,7.454,7.454,0,0,1-7.212,7.675Z" transform="translate(-4.516 52.156)" fill="#ff9800"/>
    <path id="Caminho_13" data-name="Caminho 13" d="M112.729,127.05a6.982,6.982,0,0,1-5.1-2.267L11.482,22.47a7.981,7.981,0,0,1-2.234-7.587,7.457,7.457,0,0,1,5.283-5.622,6.951,6.951,0,0,1,7.13,2.377l96.17,102.312a8.037,8.037,0,0,1,1.561,8.363,7.223,7.223,0,0,1-6.663,4.736Z" transform="translate(10.567 11.824)" fill="#ff9800"/>
  </g>
  <ellipse id="Elipse_6" data-name="Elipse 6" cx="49.455" cy="52.625" rx="49.455" ry="52.625" transform="translate(25.758 27.409)" fill="#fdd82e"/>
  <path id="Caminho_14" data-name="Caminho 14" d="M6.637,92.7H170.7v105.25H6.637Z" transform="translate(2.557 314.051)" fill="#fdd82e"/>
  <path id="Caminho_15" data-name="Caminho 15" d="M17.889,143.537a7.454,7.454,0,0,1-7.212-7.674V108.454a7.454,7.454,0,0,1,7.212-7.674,7.454,7.454,0,0,1,7.212,7.674v27.409a7.926,7.926,0,0,1-2.111,5.428,6.994,6.994,0,0,1-5.1,2.247Z" transform="translate(16.029 343.246)" fill="#ff9800"/>
  <path id="Caminho_16" data-name="Caminho 16" d="M37.839,165.7a6.691,6.691,0,0,1-2.361-.439,7.8,7.8,0,0,1-4.451-9.762l5.432-16.665H29.09a7.085,7.085,0,0,1-5.877-3.223,8.082,8.082,0,0,1-.936-6.964l8.749-26.861A7.114,7.114,0,0,1,40.2,97.044a7.805,7.805,0,0,1,4.453,9.764l-5.432,16.665h7.369a7.086,7.086,0,0,1,5.877,3.223,8.082,8.082,0,0,1,.936,6.964l-8.75,26.883A7.262,7.262,0,0,1,37.839,165.7Z" transform="translate(53.382 328.214)" fill="#ff9800"/>
  <path id="Caminho_17" data-name="Caminho 17" d="M72.934,109.812h164.06v26.313H72.934Z" transform="translate(223.642 375.876)" fill="#eaeaf0"/>
</svg>
